<?xml version="1.0" encoding="UTF-8"?>
<svg width="320" height="320" viewBox="0 0 320 320" fill="none" xmlns="http://www.w3.org/2000/svg">
  <!-- Outer Glow -->
  <defs>
    <radialGradient id="bgUser" cx="50%" cy="50%" r="50%">
      <stop offset="0%" stop-color="#7fc4fd" />
      <stop offset="100%" stop-color="#3b5998" />
    </radialGradient>
    <linearGradient id="faceUser" x1="100" y1="100" x2="220" y2="260" gradientUnits="userSpaceOnUse">
      <stop stop-color="#f8efe4" />
      <stop offset="1" stop-color="#c7d0e4" />
    </linearGradient>
    <linearGradient id="neckUser" x1="140" y1="265" x2="180" y2="320" gradientUnits="userSpaceOnUse">
      <stop stop-color="#c7b7fa" />
      <stop offset="1" stop-color="#a6b6d9" />
    </linearGradient>
    <linearGradient id="hairUser" x1="80" y1="50" x2="240" y2="110" gradientUnits="userSpaceOnUse">
      <stop stop-color="#48426d" />
      <stop offset="1" stop-color="#232343" />
    </linearGradient>
    <radialGradient id="shineUser" cx="60%" cy="40%" r="50%">
      <stop offset="0%" stop-color="#fff" stop-opacity="0.6" />
      <stop offset="100%" stop-color="#fff" stop-opacity="0" />
    </radialGradient>
    <linearGradient id="shirtUser" x1="80" y1="260" x2="240" y2="320" gradientUnits="userSpaceOnUse">
      <stop stop-color="#6fd7f7" />
      <stop offset="1" stop-color="#4279c4" />
    </linearGradient>
    <linearGradient id="shirtShadow" x1="120" y1="278" x2="200" y2="315"
      gradientUnits="userSpaceOnUse">
      <stop stop-color="#4279c4" stop-opacity="0.11" />
      <stop offset="1" stop-color="#232343" stop-opacity="0.19" />
    </linearGradient>
  </defs>
  <!-- Background -->
  <circle cx="160" cy="160" r="150" fill="url(#bgUser)" opacity="0.92" />
  <!-- Shirt/Body -->
  <ellipse cx="160" cy="285" rx="80" ry="36" fill="url(#shirtUser)" />
  <ellipse cx="160" cy="297" rx="55" ry="18" fill="url(#shirtShadow)" />
  <!-- Neck -->
  <rect x="130" y="230" width="60" height="48" rx="24" fill="url(#neckUser)" />
  <!-- Face -->
  <ellipse cx="160" cy="155" rx="78" ry="98" fill="url(#faceUser)" />
  <!-- Hair (top main) -->
  <path d="M70 110 Q120 55 160 80 Q200 55 250 110 Q245 40 180 40 Q120 30 90 90 Z"
    fill="url(#hairUser)" />
  <!-- Hair (left side) -->
  <path d="M82 160 Q60 100 120 72 Q80 110 110 130 Q98 140 120 160 Q100 170 82 160 Z" fill="#232343"
    opacity="0.8" />
  <!-- Hair (right side) -->
  <path d="M238 160 Q260 100 200 72 Q240 110 210 130 Q222 140 200 160 Q220 170 238 160 Z"
    fill="#232343" opacity="0.8" />
  <!-- Ear Left -->
  <ellipse cx="85" cy="165" rx="14" ry="23" fill="#e9d8c1" />
  <!-- Ear Right -->
  <ellipse cx="235" cy="165" rx="14" ry="23" fill="#e9d8c1" />
  <!-- Face Shine -->
  <ellipse cx="140" cy="132" rx="32" ry="12" fill="url(#shineUser)" opacity="0.3" />
  <!-- Face Forehead Accent -->
  <ellipse cx="160" cy="100" rx="22" ry="7" fill="#fff" opacity="0.07" />
  <!-- Cheek Blush Left -->
  <ellipse cx="120" cy="175" rx="13" ry="7" fill="#ffb8c6" opacity="0.38" />
  <!-- Cheek Blush Right -->
  <ellipse cx="200" cy="175" rx="13" ry="7" fill="#ffb8c6" opacity="0.38" />
  <!-- Eye Left -->
  <ellipse cx="130" cy="160" rx="11" ry="13" fill="#232343" />
  <ellipse cx="130" cy="158" rx="5" ry="5" fill="#fff" opacity="0.7" />
  <!-- Eye Right -->
  <ellipse cx="190" cy="160" rx="11" ry="13" fill="#232343" />
  <ellipse cx="190" cy="158" rx="5" ry="5" fill="#fff" opacity="0.7" />
  <!-- Eyebrow Left -->
  <rect x="117" y="142" width="18" height="4" rx="2" fill="#48426d" />
  <!-- Eyebrow Right -->
  <rect x="185" y="142" width="18" height="4" rx="2" fill="#48426d" />
  <!-- Nose -->
  <ellipse cx="160" cy="175" rx="5.5" ry="9" fill="#e7c7a3" opacity="0.7" />
  <!-- Mouth Smile -->
  <path d="M142 195 Q160 210 178 195" stroke="#f8a9b1" stroke-width="5" stroke-linecap="round"
    fill="none" />
  <!-- Chin Highlight -->
  <ellipse cx="160" cy="215" rx="28" ry="10" fill="#fff" opacity="0.11" />
  <!-- Lower Face Shadow -->
  <ellipse cx="160" cy="205" rx="46" ry="15" fill="#232343" opacity="0.11" />
  <!-- Neck Shadow -->
  <ellipse cx="160" cy="254" rx="20" ry="7" fill="#232343" opacity="0.15" />
  <!-- Shirt Collar Left -->
  <path d="M130 237 Q110 250 160 255 Q145 236 130 237 Z" fill="#fff" opacity="0.14" />
  <!-- Shirt Collar Right -->
  <path d="M190 237 Q210 250 160 255 Q175 236 190 237 Z" fill="#fff" opacity="0.14" />
  <!-- Shoulder Left -->
  <ellipse cx="88" cy="280" rx="26" ry="12" fill="#7fc4fd" opacity="0.22" />
  <!-- Shoulder Right -->
  <ellipse cx="232" cy="280" rx="26" ry="12" fill="#7fc4fd" opacity="0.22" />
  <!-- Sparkle Accents -->
  <g opacity="0.34">
    <circle cx="70" cy="65" r="3" fill="#fff" />
    <rect x="241" y="92" width="6" height="6" rx="3" fill="#fff" />
    <ellipse cx="120" cy="40" rx="3" ry="1.5" fill="#fff" />
    <ellipse cx="210" cy="60" rx="2.5" ry="1.5" fill="#fff" />
    <circle cx="275" cy="120" r="2.5" fill="#7fc4fd" />
    <rect x="35" y="120" width="4" height="4" rx="2" fill="#7fc4fd" />
    <circle cx="80" cy="270" r="2.5" fill="#7fc4fd" />
    <circle cx="240" cy="270" r="2.5" fill="#7fc4fd" />
    <ellipse cx="160" cy="290" rx="2" ry="1.2" fill="#7fc4fd" />
  </g>
  <!-- Face Dots -->
  <g>
    <circle cx="120" cy="130" r="1.6" fill="#7fc4fd" opacity="0.58" />
    <circle cx="200" cy="136" r="1.7" fill="#7fc4fd" opacity="0.45" />
    <circle cx="145" cy="144" r="1.2" fill="#7fc4fd" opacity="0.38" />
    <circle cx="175" cy="140" r="1.2" fill="#7fc4fd" opacity="0.38" />
    <circle cx="160" cy="152" r="1.3" fill="#7fc4fd" opacity="0.36" />
    <circle cx="132" cy="185" r="1.1" fill="#7fc4fd" opacity="0.38" />
    <circle cx="188" cy="185" r="1.1" fill="#7fc4fd" opacity="0.38" />
    <circle cx="160" cy="185" r="1.1" fill="#7fc4fd" opacity="0.29" />
    <ellipse cx="145" cy="180" rx="2" ry="0.7" fill="#fff" opacity="0.11" />
    <ellipse cx="175" cy="180" rx="2" ry="0.7" fill="#fff" opacity="0.11" />
    <ellipse cx="160" cy="190" rx="2.4" ry="0.6" fill="#fff" opacity="0.13" />
    <ellipse cx="160" cy="200" rx="2.1" ry="0.5" fill="#fff" opacity="0.08" />
  </g>
  <!-- Abstract Techlines/Details -->
  <g stroke="#7fc4fd" stroke-width="2" opacity="0.14">
    <path d="M110 150 Q120 130 140 140" />
    <path d="M210 150 Q200 130 180 140" />
    <path d="M130 200 Q145 210 160 205" />
    <path d="M190 200 Q175 210 160 205" />
    <path d="M140 110 Q160 100 180 110" />
  </g>
  <!-- Lower Face Panel -->
  <path d="M110 210 Q160 250 210 210 Q200 245 160 245 Q120 245 110 210Z" fill="#b7e6f7"
    opacity="0.13" />
  <!-- Panel Glow -->
  <ellipse cx="160" cy="240" rx="40" ry="10" fill="url(#shineUser)" opacity="0.16" />
  <!-- Small Dots & Details -->
  <g>
    <circle cx="120" cy="120" r="1.6" fill="#7fc4fd" opacity="0.58" />
    <circle cx="200" cy="126" r="1.7" fill="#7fc4fd" opacity="0.45" />
    <circle cx="145" cy="134" r="1.2" fill="#7fc4fd" opacity="0.38" />
    <circle cx="175" cy="130" r="1.2" fill="#7fc4fd" opacity="0.38" />
    <circle cx="160" cy="142" r="1.3" fill="#7fc4fd" opacity="0.36" />
    <circle cx="132" cy="175" r="1.1" fill="#7fc4fd" opacity="0.38" />
    <circle cx="188" cy="175" r="1.1" fill="#7fc4fd" opacity="0.38" />
    <circle cx="160" cy="175" r="1.1" fill="#7fc4fd" opacity="0.29" />
    <ellipse cx="145" cy="170" rx="2" ry="0.7" fill="#fff" opacity="0.11" />
    <ellipse cx="175" cy="170" rx="2" ry="0.7" fill="#fff" opacity="0.11" />
    <ellipse cx="160" cy="180" rx="2.4" ry="0.6" fill="#fff" opacity="0.13" />
    <ellipse cx="160" cy="190" rx="2.1" ry="0.5" fill="#fff" opacity="0.08" />
  </g>
  <!-- Jaw line -->
  <path d="M120 220 Q160 260 200 220" stroke="#7fc4fd" stroke-width="3" fill="none" opacity="0.12" />
  <!-- Subtle top face shadow -->
  <ellipse cx="160" cy="100" rx="38" ry="10" fill="#232343" opacity="0.08" />
</svg>
